<svg width="1200" height="1200" viewBox="0 0 1200 1200" fill="none" xmlns="http://www.w3.org/2000/svg">
<g clip-path="url(#clip0)">
<path d="M497.378 429.655C698.719 390.391 777.018 483.41 791 534.828C765.366 534.828 661.667 552.356 451.937 622.471C242.207 692.586 73.2583 607.28 15 555.862C42.964 562.874 113.573 568.483 172.297 534.828C231.022 501.173 182.784 387.586 151.324 335C182.784 382.912 296.038 468.92 497.378 429.655Z" fill="#B31217"/>
<path d="M1109.37 922.759L1159.82 819.214C1165.29 807.962 1161.53 794.337 1150.99 786.935L1039.54 709.36C1029.79 702.572 1016.55 702.733 1007.28 709.839L938.898 761.555C863.3 705.14 808.076 623.563 786.1 532.351L863.969 494.864C874.636 489.722 880.351 478.413 878.031 467.092L851.517 337.711C848.859 325.323 837.532 316.312 824.557 316.311L705.126 316.378C692.722 316.393 681.952 324.6 679.325 336.482C619.797 605.763 798.63 874.58 1079.43 936.654C1091.69 939.364 1104.1 933.615 1109.37 922.759Z" fill="url(#paint0_linear)"/>
<mask id="mask0" mask-type="alpha" maskUnits="userSpaceOnUse" x="571" y="286" width="681" height="663">
<path d="M1109.37 922.759L1159.82 819.214C1165.29 807.962 1161.53 794.337 1150.99 786.935L1039.54 709.36C1029.79 702.572 1016.55 702.733 1007.28 709.839L938.898 761.555C863.3 705.14 808.077 623.563 786.1 532.351L863.97 494.864C874.637 489.722 880.352 478.413 878.032 467.092L851.518 337.711C848.86 325.323 837.532 316.312 824.557 316.311L705.126 316.378C692.722 316.393 681.952 324.6 679.325 336.482C619.798 605.763 798.63 874.58 1079.43 936.654C1091.69 939.364 1104.1 933.615 1109.37 922.759Z" fill="url(#paint1_linear)"/>
</mask>
<g mask="url(#mask0)">
<path d="M843.709 517.1C772.667 538.498 702.838 549.554 676.804 552.407L698.202 773.878L1080.16 1026.38L1245.99 786.717C1141.5 687.929 914.751 495.702 843.709 517.1Z" fill="#1E88E5"/>
</g>
<mask id="mask1" mask-type="alpha" maskUnits="userSpaceOnUse" x="14" y="335" width="778" height="314">
<path d="M497.26 430.118C698.747 390.972 777.103 483.711 791.095 534.973C765.443 534.973 661.668 552.449 451.786 622.352C241.904 692.255 72.8325 607.206 14.532 555.944C42.5162 562.934 113.176 568.526 171.943 534.973C230.71 501.419 182.437 388.176 150.955 335.749C182.437 383.516 295.774 469.264 497.26 430.118Z" fill="#FA0000"/>
</mask>
<g mask="url(#mask1)">
<path d="M451.349 531.103C607.632 474.802 745.391 511.689 794.735 537.17L808.082 659.721L46.0799 648.801C-19.8471 602.692 -118.697 520.182 13.3186 559.01C178.338 607.546 255.994 601.479 451.349 531.103Z" fill="#E52D27"/>
</g>
<ellipse cx="790.75" cy="534.218" rx="18.7234" ry="19.2583" fill="#F9A825"/>
<mask id="mask2" mask-type="alpha" maskUnits="userSpaceOnUse" x="758" y="501" width="48" height="49">
<circle cx="781.994" cy="525.642" r="23.6609" fill="#FBC02D"/>
</mask>
<g mask="url(#mask2)">
<circle cx="790.488" cy="534.136" r="18.8074" fill="#FBC02D"/>
</g>
</g>
<defs>
<linearGradient id="paint0_linear" x1="747.419" y1="264.602" x2="747.419" y2="919.385" gradientUnits="userSpaceOnUse">
<stop stop-color="#1E88E5"/>
<stop stop-color="#2E95EC"/>
<stop offset="1" stop-color="#42A5F5"/>
</linearGradient>
<linearGradient id="paint1_linear" x1="747.419" y1="264.602" x2="747.419" y2="919.385" gradientUnits="userSpaceOnUse">
<stop stop-color="#1E88E5"/>
<stop stop-color="#2E95EC"/>
<stop offset="1" stop-color="#42A5F5"/>
</linearGradient>
<clipPath id="clip0">
<rect width="1200" height="1200" fill="white"/>
</clipPath>
</defs>
</svg>
